<?xml version="1.0" standalone="no"?>
<!DOCTYPE svg PUBLIC "-//W3C//DTD SVG 20010904//EN"
 "http://www.w3.org/TR/2001/REC-SVG-20010904/DTD/svg10.dtd">
<svg version="1.0" xmlns="http://www.w3.org/2000/svg"
 width="96.000000pt" height="96.000000pt" viewBox="0 0 96.000000 96.000000"
 preserveAspectRatio="xMidYMid meet">
<metadata>
Created by potrace 1.16, written by Peter Selinger 2001-2019
</metadata>
<g transform="translate(0.000000,96.000000) scale(0.100000,-0.100000)"
fill="#000000" stroke="none">
<path d="M442 883 c-7 -3 -19 -18 -27 -34 -15 -29 -16 -29 -108 -29 -50 0 -99
-5 -107 -10 -23 -14 -28 -651 -5 -686 l15 -24 270 0 c267 0 269 0 284 22 14
19 16 69 16 338 0 269 -2 319 -16 338 -14 20 -23 22 -109 22 -94 0 -95 0 -109
29 -20 38 -61 51 -104 34z m81 -53 c10 -27 16 -30 55 -30 35 0 45 -4 49 -20 4
-16 14 -20 43 -20 25 0 40 -5 44 -16 8 -20 8 -548 0 -568 -5 -14 -35 -16 -234
-16 -199 0 -229 2 -234 16 -8 20 -8 548 0 568 4 11 19 16 44 16 29 0 39 4 43
20 4 16 14 20 49 20 39 0 45 3 55 30 9 25 17 30 43 30 26 0 34 -5 43 -30z"/>
<path d="M370 560 c0 -17 7 -20 40 -20 l40 0 0 -89 c0 -102 5 -121 30 -121 25
0 30 19 30 121 l0 89 40 0 c33 0 40 3 40 20 0 19 -7 20 -110 20 -103 0 -110
-1 -110 -20z"/>
</g>
</svg>
